<svg xmlns="http://www.w3.org/2000/svg" width="34" height="29" fill="none" viewBox="0 0 34 29"><g fill="#F9CA20"><path d="M9.662 23.71v-4.293s.864 1.074 3.719 2.556c2.854 1.482 5.07 1.769 5.07 1.769l-4.248 2.542c-2 1.196-4.54-.245-4.54-2.575ZM24.94 13.142a.537.537 0 0 1 0 .932l-10.349 6.143c-.38.226-.872-.036-.872-.466V7.465c0-.43.492-.692.872-.466l10.35 6.143Z"/><path fill-rule="evenodd" d="M9.662 6.098c-2.39-.006-3.618.73-4.064 1.493-.481.826-.476 2.42 1.044 4.743 1.453 2.22 4.018 4.615 7.395 6.545 3.377 1.93 6.754 2.931 9.423 3.067 2.793.141 4.19-.651 4.671-1.477.288-.493.402-1.261.123-2.295l1.803-1.018c.553 1.612.535 3.11-.17 4.317-2.121 3.638-9.672 3.255-16.864-.856C5.83 16.507 1.72 10.225 3.842 6.587c.977-1.675 3.106-2.498 5.82-2.496v2.007Z" clip-rule="evenodd"/><path fill-rule="evenodd" d="M12.87 2.812c-.676-.383-1.517.1-1.517.871v12.889c.149.155.371.374.667.63.623.54 1.566 1.241 2.828 1.866a18.59 18.59 0 0 0 3.363 1.268c.44.118.797.197 1.041.245l.034.007 11.084-6.124a.999.999 0 0 0 .009-1.748l-17.51-9.904Zm6.595 18.827-.144.993h-.004l-.009-.002-.026-.004a9.423 9.423 0 0 1-.428-.076 17.878 17.878 0 0 1-1.177-.277 20.631 20.631 0 0 1-3.736-1.41 15.477 15.477 0 0 1-3.256-2.15 11.94 11.94 0 0 1-.831-.789 7.785 7.785 0 0 1-.28-.31l-.018-.02-.005-.008-.003-.003c0-.001-.001-.002.79-.629l-.791.627-.223-.275V3.683c0-2.312 2.524-3.762 4.552-2.614l17.51 9.904c2.055 1.163 2.04 4.102-.027 5.244L19.66 22.68l-.339-.048.144-.993Z" clip-rule="evenodd"/></g></svg>